# xmcd
#
# Track frame offsets: 
#        150
#        10363
#        18443
#        29521
#        39073
#        43807
#        59518
#        68389
#        83219
#        90436
#        102547
#        113836
#        126567
#        140417
#        150822
#
# Disc length: 2149 seconds
#
# Revision: 1
# Processed by: cddbd v1.5.2PL0 Copyright (c) Steve Scherf et al.
# Submitted via: ExactAudioCopy v1.3
#
DISCID=bb08630f
DTITLE=Buddy Holly and the Crickets - Gold
DYEAR=2006
DGENRE=Blues
TTITLE0=That'll be the day
TTITLE1=Maybe Baby
TTITLE2=Quando Quando Quando
TTITLE3=Everyday
TTITLE4=Keep a knockin'
TTITLE5=Welcome to the country
TTITLE6=Well alright
TTITLE7=Doin' like Elvis
TTITLE8=Oh Boy
TTITLE9=I've got to be me
TTITLE10=Peggy Sue
TTITLE11=True love ways
TTITLE12=Love is strange
TTITLE13=I'm gonna set my foot down
TTITLE14=Bo Diddley
EXTD=
EXTT0=
EXTT1=
EXTT2=
EXTT3=
EXTT4=
EXTT5=
EXTT6=
EXTT7=
EXTT8=
EXTT9=
EXTT10=
EXTT11=
EXTT12=
EXTT13=
EXTT14=
PLAYORDER=
